<svg width="228" height="262" viewBox="0 0 228 262" fill="none" xmlns="http://www.w3.org/2000/svg">
<g filter="url(#filter0_f_509_382)">
<ellipse cx="114" cy="116.5" rx="64" ry="66.5" fill="white" fill-opacity="0.5"/>
</g>
<path d="M155.16 235.624L182.622 242.715L137.599 142.579L97.7305 161.858L142.75 262L155.16 235.624Z" fill="#BCA2A2"/>
<path d="M146.058 254.97L155.157 235.624L175.296 240.825L132.286 145.148L103.043 159.29L146.058 254.97Z" fill="#776E63"/>
<path d="M73.455 235.624L46 242.715L91.0172 142.579L130.888 161.858L85.8682 262L73.455 235.624Z" fill="#BCA2A2"/>
<path d="M82.5589 254.97L73.46 235.624L53.3252 240.825L96.3331 145.148L125.574 159.29L82.5589 254.97Z" fill="#776E63"/>
<path d="M114.274 182.604C149.578 182.604 178.197 152.92 178.197 116.302C178.197 79.6844 149.578 50 114.274 50C78.9706 50 50.3513 79.6844 50.3513 116.302C50.3513 152.92 78.9706 182.604 114.274 182.604Z" fill="#CDC9C4"/>
<path d="M115.556 168.933C143.503 168.208 165.591 144.122 164.893 115.136C164.194 86.1498 140.973 63.2391 113.026 63.9638C85.0802 64.6884 62.9917 88.774 63.6903 117.76C64.389 146.747 87.6103 169.657 115.556 168.933Z" fill="#776E63"/>
<path d="M158.695 116.434C158.695 125.546 156.089 134.454 151.208 142.03C146.327 149.607 139.389 155.511 131.272 158.998C123.156 162.485 114.224 163.397 105.608 161.619C96.9914 159.841 89.0767 155.453 82.8647 149.009C76.6527 142.566 72.4223 134.356 70.7086 125.419C68.9948 116.482 69.8746 107.218 73.2368 98.7992C76.5989 90.3805 82.2923 83.185 89.5971 78.1225C96.9019 73.06 105.49 70.3579 114.275 70.3579C120.109 70.3579 125.885 71.5497 131.275 73.8653C136.664 76.1809 141.561 79.5748 145.686 83.8534C149.811 88.132 153.083 93.2114 155.315 98.8016C157.547 104.392 158.696 110.383 158.695 116.434V116.434Z" fill="#CDC9C4"/>
<path d="M114.275 159.545C137.231 159.545 155.84 140.244 155.84 116.434C155.84 92.624 137.231 73.3223 114.275 73.3223C91.32 73.3223 72.7109 92.624 72.7109 116.434C72.7109 140.244 91.32 159.545 114.275 159.545Z" fill="#776E63"/>
<path d="M154.191 116.434C154.19 124.624 151.849 132.629 147.462 139.438C143.075 146.247 136.84 151.553 129.546 154.687C122.251 157.82 114.224 158.64 106.481 157.042C98.7371 155.444 91.6242 151.5 86.0414 145.709C80.4587 139.919 76.6569 132.541 75.1168 124.509C73.5766 116.477 74.3673 108.151 77.3889 100.586C80.4104 93.0197 85.5272 86.5531 92.092 82.0034C98.6568 77.4538 106.375 75.0254 114.27 75.0254C119.513 75.0251 124.705 76.0959 129.548 78.1768C134.392 80.2577 138.793 83.3079 142.5 87.1532C146.207 90.9984 149.148 95.5635 151.154 100.588C153.159 105.612 154.192 110.996 154.191 116.434V116.434Z" fill="#CDC9C4"/>
<path d="M116.939 80.3871C116.94 80.934 116.784 81.4688 116.492 81.9239C116.199 82.379 115.783 82.7339 115.296 82.9436C114.809 83.1534 114.273 83.2086 113.756 83.1023C113.239 82.996 112.764 82.7329 112.391 82.3464C112.018 81.9598 111.764 81.4672 111.661 80.9309C111.558 80.3945 111.61 79.8385 111.812 79.3332C112.014 78.828 112.356 78.3962 112.794 78.0924C113.233 77.7887 113.748 77.6267 114.275 77.627C114.981 77.6283 115.657 77.9195 116.157 78.4367C116.656 78.954 116.937 79.6553 116.939 80.3871Z" fill="#776E63"/>
<path d="M116.939 152.476C116.939 151.929 116.783 151.394 116.491 150.94C116.198 150.485 115.782 150.13 115.295 149.921C114.808 149.712 114.272 149.657 113.755 149.763C113.238 149.87 112.763 150.133 112.39 150.52C112.017 150.907 111.763 151.399 111.661 151.936C111.558 152.472 111.611 153.028 111.812 153.533C112.014 154.038 112.356 154.47 112.794 154.773C113.233 155.077 113.748 155.239 114.275 155.239C114.625 155.239 114.972 155.167 115.295 155.028C115.618 154.889 115.912 154.686 116.159 154.429C116.406 154.173 116.602 153.868 116.736 153.533C116.87 153.198 116.939 152.839 116.939 152.476V152.476Z" fill="#776E63"/>
<path d="M149.024 119.194C148.498 119.194 147.983 119.031 147.545 118.728C147.108 118.424 146.767 117.992 146.565 117.487C146.364 116.983 146.312 116.427 146.415 115.892C146.518 115.356 146.771 114.864 147.144 114.478C147.516 114.092 147.991 113.829 148.507 113.722C149.024 113.615 149.559 113.67 150.046 113.879C150.533 114.088 150.948 114.442 151.241 114.896C151.534 115.35 151.69 115.884 151.691 116.43C151.69 117.163 151.409 117.866 150.909 118.385C150.409 118.903 149.731 119.194 149.024 119.194Z" fill="#776E63"/>
<path d="M79.525 119.194C80.0516 119.193 80.566 119.031 81.0034 118.726C81.4407 118.422 81.7813 117.991 81.9822 117.486C82.1831 116.981 82.2352 116.426 82.132 115.89C82.0287 115.354 81.7748 114.863 81.4022 114.477C81.0296 114.091 80.5551 113.828 80.0386 113.722C79.5222 113.615 78.9869 113.67 78.5005 113.879C78.014 114.088 77.5982 114.442 77.3056 114.896C77.013 115.35 76.8567 115.884 76.8564 116.43C76.8566 116.794 76.9258 117.153 77.06 117.489C77.1942 117.824 77.3908 118.129 77.6387 118.386C77.8865 118.643 78.1806 118.846 78.5043 118.985C78.828 119.124 79.1748 119.195 79.525 119.194V119.194Z" fill="#776E63"/>
<path d="M91.5866 88.989C91.9598 89.3754 92.214 89.8679 92.3172 90.4042C92.4204 90.9405 92.3679 91.4965 92.1664 92.0019C91.9648 92.5072 91.6232 92.9392 91.1849 93.2431C90.7466 93.547 90.2312 93.7092 89.7039 93.7092C89.1767 93.7092 88.6613 93.547 88.2229 93.2431C87.7846 92.9392 87.443 92.5072 87.2415 92.0019C87.0399 91.4965 86.9874 90.9405 87.0906 90.4042C87.1938 89.8679 87.448 89.3754 87.8212 88.989C88.3208 88.4717 88.9979 88.1812 89.7039 88.1812C90.4099 88.1812 91.087 88.4717 91.5866 88.989Z" fill="#776E63"/>
<path d="M140.731 139.964C140.358 139.578 139.884 139.315 139.368 139.209C138.851 139.103 138.316 139.158 137.83 139.367C137.344 139.576 136.928 139.93 136.636 140.384C136.343 140.838 136.187 141.372 136.187 141.918C136.187 142.464 136.343 142.997 136.636 143.451C136.928 143.905 137.344 144.259 137.83 144.469C138.316 144.678 138.851 144.733 139.368 144.626C139.884 144.52 140.358 144.258 140.731 143.872C140.979 143.615 141.175 143.311 141.309 142.976C141.443 142.64 141.513 142.281 141.513 141.918C141.513 141.555 141.443 141.195 141.309 140.86C141.175 140.525 140.979 140.22 140.731 139.964V139.964Z" fill="#776E63"/>
<path d="M140.731 92.8998C140.358 93.2856 139.884 93.5482 139.367 93.6544C138.85 93.7606 138.315 93.7056 137.829 93.4963C137.342 93.2871 136.927 92.933 136.634 92.4788C136.342 92.0245 136.186 91.4906 136.186 90.9444C136.186 90.3982 136.342 89.8642 136.634 89.41C136.927 88.9558 137.342 88.6017 137.829 88.3924C138.315 88.1832 138.85 88.1282 139.367 88.2343C139.884 88.3405 140.358 88.6031 140.731 88.989C140.979 89.2454 141.176 89.5502 141.31 89.8857C141.445 90.2213 141.514 90.581 141.514 90.9444C141.514 91.3077 141.445 91.6675 141.31 92.003C141.176 92.3386 140.979 92.6433 140.731 92.8998V92.8998Z" fill="#776E63"/>
<path d="M91.5866 143.872C91.959 143.486 92.2126 142.993 92.3152 142.457C92.4179 141.922 92.365 141.366 92.1634 140.861C91.9617 140.357 91.6203 139.925 91.1823 139.622C90.7443 139.318 90.2294 139.156 89.7027 139.156C89.1759 139.156 88.661 139.318 88.223 139.622C87.785 139.925 87.4436 140.357 87.242 140.861C87.0403 141.366 86.9875 141.922 87.0901 142.457C87.1928 142.993 87.4463 143.486 87.8187 143.872C88.066 144.129 88.3596 144.333 88.6829 144.472C89.0062 144.611 89.3527 144.682 89.7027 144.682C90.0526 144.682 90.3992 144.611 90.7224 144.472C91.0457 144.333 91.3394 144.129 91.5866 143.872Z" fill="#776E63"/>
<path d="M107.855 80.9048C107.991 81.4332 107.974 81.9917 107.804 82.5097C107.634 83.0276 107.32 83.4817 106.901 83.8145C106.483 84.1472 105.978 84.3437 105.452 84.3791C104.926 84.4145 104.401 84.2871 103.945 84.0132C103.488 83.7392 103.12 83.331 102.887 82.8401C102.654 82.3492 102.567 81.7977 102.637 81.2555C102.706 80.7132 102.929 80.2044 103.277 79.7936C103.626 79.3827 104.084 79.0883 104.593 78.9474C105.276 78.7591 106.003 78.8594 106.614 79.2264C107.226 79.5933 107.672 80.1969 107.855 80.9048Z" fill="#776E63"/>
<path d="M125.842 150.534C125.705 150.006 125.421 149.532 125.024 149.173C124.628 148.813 124.138 148.583 123.615 148.512C123.093 148.441 122.562 148.533 122.09 148.775C121.618 149.017 121.225 149.399 120.962 149.872C120.699 150.346 120.577 150.889 120.612 151.435C120.647 151.98 120.837 152.502 121.158 152.935C121.479 153.368 121.917 153.693 122.416 153.868C122.915 154.044 123.453 154.061 123.961 153.92C124.299 153.826 124.616 153.664 124.894 153.443C125.171 153.221 125.404 152.946 125.579 152.631C125.754 152.317 125.867 151.97 125.912 151.61C125.957 151.25 125.933 150.884 125.842 150.534V150.534Z" fill="#776E63"/>
<path d="M148.531 109.774C148.022 109.914 147.484 109.896 146.985 109.719C146.486 109.543 146.049 109.218 145.729 108.784C145.408 108.35 145.219 107.827 145.185 107.282C145.151 106.736 145.273 106.193 145.537 105.72C145.801 105.246 146.194 104.865 146.666 104.623C147.139 104.382 147.67 104.291 148.193 104.363C148.715 104.434 149.205 104.665 149.601 105.025C149.998 105.386 150.282 105.86 150.418 106.388C150.6 107.096 150.504 107.851 150.15 108.486C149.796 109.121 149.214 109.584 148.531 109.774V109.774Z" fill="#776E63"/>
<path d="M81.3985 128.43C81.9071 128.288 82.3638 127.993 82.7108 127.582C83.0579 127.172 83.2796 126.663 83.3481 126.121C83.4165 125.58 83.3286 125.029 83.0955 124.539C82.8623 124.049 82.4944 123.642 82.0382 123.369C81.5819 123.096 81.0579 122.97 80.5324 123.005C80.0068 123.041 79.5033 123.238 79.0854 123.571C78.6676 123.903 78.3542 124.357 78.1849 124.874C78.0155 125.391 77.9979 125.949 78.1341 126.477C78.3178 127.185 78.7647 127.788 79.3768 128.154C79.9888 128.52 80.7159 128.62 81.3985 128.43Z" fill="#776E63"/>
<path d="M85.5154 96.0164C85.9724 96.2895 86.341 96.6972 86.5746 97.1877C86.8082 97.6782 86.8962 98.2295 86.8276 98.7719C86.7591 99.3144 86.5369 99.8235 86.1893 100.235C85.8416 100.646 85.3841 100.942 84.8747 101.083C84.3653 101.225 83.8267 101.207 83.3273 101.031C82.8278 100.855 82.3899 100.53 82.0688 100.096C81.7478 99.6614 81.5581 99.1384 81.5237 98.5925C81.4894 98.0465 81.6119 97.5023 81.8758 97.0287C82.2296 96.3944 82.8115 95.9316 83.4938 95.7419C84.1761 95.5521 84.9032 95.6508 85.5154 96.0164V96.0164Z" fill="#776E63"/>
<path d="M145.702 132.064C145.246 131.791 144.722 131.664 144.196 131.699C143.671 131.735 143.167 131.931 142.75 132.264C142.332 132.596 142.018 133.049 141.849 133.566C141.679 134.084 141.662 134.641 141.798 135.169C141.934 135.696 142.218 136.17 142.614 136.53C143.009 136.891 143.499 137.121 144.021 137.193C144.543 137.264 145.074 137.173 145.547 136.932C146.019 136.69 146.412 136.309 146.675 135.836C146.85 135.522 146.964 135.176 147.01 134.816C147.055 134.456 147.032 134.091 146.942 133.741C146.852 133.39 146.695 133.062 146.483 132.774C146.27 132.486 146.004 132.245 145.702 132.064V132.064Z" fill="#776E63"/>
<path d="M133.958 86.5964C133.694 87.07 133.301 87.4517 132.827 87.6934C132.354 87.935 131.823 88.0258 131.3 87.9541C130.777 87.8824 130.287 87.6515 129.89 87.2906C129.494 86.9297 129.21 86.4551 129.074 85.9267C128.938 85.3982 128.956 84.8398 129.125 84.322C129.295 83.8042 129.609 83.3502 130.028 83.0175C130.447 82.6849 130.951 82.4884 131.477 82.4531C132.003 82.4177 132.528 82.545 132.984 82.8188C133.287 83.0005 133.553 83.2423 133.766 83.5305C133.979 83.8187 134.135 84.1476 134.226 84.4984C134.316 84.8492 134.339 85.2151 134.293 85.5751C134.247 85.935 134.133 86.2821 133.958 86.5964V86.5964Z" fill="#776E63"/>
<path d="M99.2074 149.029C99.4705 148.555 99.5925 148.012 99.5578 147.467C99.5231 146.921 99.3334 146.399 99.0126 145.966C98.6918 145.533 98.2543 145.208 97.7555 145.032C97.2566 144.857 96.7188 144.839 96.2101 144.98C95.7013 145.122 95.2444 145.416 94.8971 145.827C94.5499 146.238 94.3278 146.746 94.2591 147.288C94.1904 147.83 94.278 148.38 94.511 148.87C94.7439 149.36 95.1117 149.768 95.5678 150.041C95.8708 150.222 96.2054 150.34 96.5523 150.388C96.8993 150.435 97.2518 150.411 97.5898 150.317C97.9278 150.223 98.2446 150.061 98.5222 149.84C98.7997 149.619 99.0326 149.343 99.2074 149.029V149.029Z" fill="#776E63"/>
<path d="M99.2073 83.8353C99.4708 84.3084 99.5932 84.8519 99.5589 85.3971C99.5246 85.9423 99.3352 86.4648 99.0147 86.8984C98.6942 87.332 98.2569 87.6573 97.7581 87.8331C97.2594 88.0089 96.7216 88.0274 96.2127 87.8863C95.7038 87.7451 95.2467 87.4506 94.8992 87.04C94.5516 86.6293 94.3293 86.1211 94.2603 85.5794C94.1912 85.0377 94.2786 84.487 94.5113 83.9968C94.744 83.5066 95.1117 83.099 95.5677 82.8256C95.8706 82.6439 96.205 82.526 96.5519 82.4784C96.8987 82.4309 97.2512 82.4546 97.5892 82.5484C97.9271 82.6422 98.244 82.8041 98.5216 83.0249C98.7993 83.2457 99.0323 83.521 99.2073 83.8353Z" fill="#776E63"/>
<path d="M133.958 146.263C133.694 145.789 133.301 145.406 132.829 145.164C132.356 144.922 131.824 144.83 131.301 144.901C130.778 144.973 130.287 145.203 129.891 145.564C129.494 145.924 129.209 146.399 129.073 146.927C128.936 147.455 128.954 148.014 129.123 148.532C129.293 149.05 129.607 149.504 130.025 149.837C130.444 150.17 130.948 150.367 131.474 150.403C132 150.438 132.525 150.311 132.982 150.038C133.594 149.671 134.04 149.067 134.223 148.359C134.406 147.652 134.311 146.897 133.958 146.263Z" fill="#776E63"/>
<path d="M145.702 100.806C145.245 101.079 144.721 101.207 144.194 101.171C143.668 101.136 143.164 100.94 142.745 100.607C142.327 100.274 142.013 99.8203 141.843 99.3024C141.673 98.7846 141.655 98.2262 141.791 97.6978C141.927 97.1693 142.211 96.6947 142.608 96.3338C143.004 95.9729 143.495 95.742 144.017 95.6703C144.54 95.5987 145.072 95.6894 145.545 95.931C146.018 96.1727 146.411 96.5544 146.675 97.028C147.027 97.6632 147.123 98.4173 146.94 99.1253C146.758 99.8333 146.313 100.438 145.702 100.806V100.806Z" fill="#776E63"/>
<path d="M85.5153 136.845C85.9709 136.571 86.3381 136.164 86.5705 135.674C86.8029 135.184 86.8901 134.634 86.821 134.092C86.7519 133.551 86.5296 133.043 86.1823 132.633C85.8349 132.223 85.3781 131.928 84.8696 131.787C84.361 131.646 83.8236 131.665 83.3251 131.84C82.8267 132.016 82.3896 132.341 82.0692 132.774C81.7488 133.207 81.5594 133.729 81.525 134.274C81.4906 134.819 81.6126 135.362 81.8757 135.835C82.0506 136.149 82.2836 136.425 82.5612 136.646C82.8388 136.867 83.1557 137.029 83.4937 137.122C83.8318 137.216 84.1843 137.24 84.5312 137.192C84.8781 137.145 85.2125 137.027 85.5153 136.845V136.845Z" fill="#776E63"/>
<path d="M81.3984 104.435C81.9074 104.577 82.3645 104.872 82.7119 105.283C83.0593 105.694 83.2814 106.203 83.35 106.745C83.4186 107.287 83.3308 107.838 83.0975 108.328C82.8642 108.818 82.4961 109.226 82.0395 109.499C81.583 109.772 81.0586 109.899 80.5327 109.863C80.0068 109.827 79.503 109.63 79.0849 109.297C78.6669 108.964 78.3534 108.51 78.1841 107.992C78.0149 107.475 77.9974 106.916 78.134 106.388C78.3174 105.681 78.7643 105.077 79.3764 104.711C79.9885 104.345 80.7157 104.245 81.3984 104.435V104.435Z" fill="#776E63"/>
<path d="M148.531 123.093C148.022 122.952 147.484 122.971 146.986 123.147C146.487 123.323 146.05 123.649 145.73 124.083C145.41 124.517 145.221 125.039 145.187 125.584C145.153 126.129 145.275 126.673 145.539 127.146C145.803 127.619 146.196 128 146.669 128.241C147.141 128.482 147.672 128.573 148.194 128.501C148.716 128.429 149.206 128.199 149.602 127.838C149.998 127.478 150.282 127.004 150.418 126.476C150.6 125.768 150.503 125.014 150.149 124.379C149.796 123.745 149.213 123.282 148.531 123.093V123.093Z" fill="#776E63"/>
<path d="M125.842 82.3297C125.706 82.8576 125.422 83.3316 125.025 83.6919C124.629 84.0521 124.139 84.2824 123.616 84.3535C123.094 84.4247 122.563 84.3335 122.09 84.0916C121.618 83.8497 121.225 83.4678 120.962 82.9944C120.699 82.5209 120.577 81.9771 120.612 81.4318C120.647 80.8865 120.837 80.3641 121.158 79.9308C121.479 79.4975 121.916 79.1726 122.416 78.9974C122.915 78.8222 123.453 78.8044 123.961 78.9464C124.299 79.0403 124.616 79.2023 124.893 79.4232C125.171 79.6441 125.403 79.9195 125.578 80.2337C125.753 80.5479 125.866 80.8948 125.911 81.2544C125.957 81.6141 125.933 81.9795 125.842 82.3297V82.3297Z" fill="#776E63"/>
<path d="M107.855 151.964C107.991 151.435 107.974 150.877 107.804 150.359C107.634 149.841 107.32 149.387 106.901 149.054C106.483 148.721 105.978 148.525 105.452 148.489C104.926 148.454 104.401 148.581 103.945 148.855C103.488 149.129 103.12 149.537 102.887 150.028C102.654 150.519 102.567 151.071 102.637 151.613C102.706 152.155 102.929 152.664 103.277 153.075C103.626 153.486 104.084 153.78 104.593 153.921C105.276 154.107 106.002 154.006 106.613 153.64C107.224 153.273 107.671 152.67 107.855 151.964V151.964Z" fill="#776E63"/>
<g style="mix-blend-mode:soft-light">
<path d="M86.1836 72.7794L156.357 145.565C159.072 141.357 161.183 136.763 162.626 131.927L99.3259 66.2778C94.664 67.7716 90.2367 69.9618 86.1836 72.7794V72.7794Z" fill="#FFD0CA"/>
</g>
<g style="mix-blend-mode:soft-light">
<path d="M78.7523 79.064C77.0347 80.8183 75.4406 82.6982 73.9822 84.689L144.875 158.221C146.795 156.706 148.609 155.053 150.305 153.273L116.919 118.65L78.7523 79.064Z" fill="#FFD0CA"/>
</g>
<path d="M100.99 137.809V129.201C104.634 127.107 107.753 125.08 110.349 123.122C112.99 121.163 115.153 119.296 116.838 117.52C118.523 115.699 119.776 113.991 120.596 112.397C121.415 110.757 121.825 109.209 121.825 107.752C121.825 106.34 121.438 105.156 120.664 104.2C119.89 103.198 118.683 102.697 117.043 102.697C115.176 102.697 113.764 103.403 112.808 104.814C111.897 106.226 111.442 108.389 111.442 111.304L99.4874 108.093C99.533 104.496 100.353 101.513 101.947 99.1446C103.541 96.7765 105.726 95.0004 108.504 93.8163C111.328 92.6323 114.47 92.0402 117.931 92.0402C121.165 92.0402 123.897 92.4956 126.129 93.4064C128.406 94.2717 130.227 95.433 131.594 96.8903C133.005 98.3021 134.03 99.8732 134.668 101.604C135.305 103.289 135.624 104.974 135.624 106.659C135.624 109.619 134.85 112.329 133.301 114.788C131.753 117.247 129.613 119.547 126.88 121.687C124.148 123.782 120.983 125.786 117.385 127.699V127.835C118.25 127.744 119.229 127.676 120.322 127.63C121.415 127.585 122.577 127.562 123.806 127.562C125.036 127.516 126.22 127.494 127.358 127.494H136.034V137.809H100.99Z" fill="#57636F"/>
<defs>
<filter id="filter0_f_509_382" x="0" y="0" width="228" height="233" filterUnits="userSpaceOnUse" color-interpolation-filters="sRGB">
<feFlood flood-opacity="0" result="BackgroundImageFix"/>
<feBlend mode="normal" in="SourceGraphic" in2="BackgroundImageFix" result="shape"/>
<feGaussianBlur stdDeviation="25" result="effect1_foregroundBlur_509_382"/>
</filter>
</defs>
</svg>
