<svg width="228" height="263" viewBox="0 0 228 263" fill="none" xmlns="http://www.w3.org/2000/svg">
<g filter="url(#filter0_f_509_383)">
<ellipse cx="114" cy="116.5" rx="64" ry="66.5" fill="#EB8B38"/>
</g>
<path d="M155.462 236.137L183 243.248L137.852 142.834L97.8735 162.168L143.018 262.586L155.462 236.137Z" fill="#3F2D2D"/>
<path d="M146.335 255.537L155.459 236.137L175.653 241.353L132.525 145.411L103.2 159.592L146.335 255.537Z" fill="#63431D"/>
<path d="M73.531 236.137L46 243.248L91.1417 142.834L131.123 162.168L85.9785 262.586L73.531 236.137Z" fill="#3F2D2D"/>
<path d="M82.66 255.537L73.5359 236.137L53.3455 241.353L96.4724 145.411L125.794 159.592L82.66 255.537Z" fill="#63431D"/>
<path d="M114.463 182.971C149.864 182.971 178.563 153.204 178.563 116.486C178.563 79.7666 149.864 50 114.463 50C79.0617 50 50.3633 79.7666 50.3633 116.486C50.3633 153.204 79.0617 182.971 114.463 182.971Z" fill="#33230A"/>
<path d="M115.749 169.261C143.772 168.535 165.922 144.383 165.222 115.316C164.521 86.2495 141.235 63.2755 113.212 64.0021C85.1883 64.7288 63.0386 88.881 63.7392 117.948C64.4398 147.014 87.7254 169.988 115.749 169.261Z" fill="#63431D"/>
<path d="M159.007 116.618C159.007 125.755 156.394 134.687 151.499 142.285C146.605 149.882 139.648 155.803 131.509 159.3C123.369 162.796 114.413 163.711 105.773 161.928C97.1327 160.145 89.1961 155.744 82.9669 149.283C76.7377 142.822 72.4956 134.589 70.7771 125.627C69.0586 116.665 69.9409 107.376 73.3123 98.934C76.6837 90.4921 82.3929 83.2766 89.7179 78.2001C97.0429 73.1236 105.655 70.4141 114.464 70.4141C120.314 70.4141 126.107 71.6092 131.511 73.9311C136.915 76.2531 141.826 79.6565 145.962 83.9469C150.098 88.2373 153.379 93.3308 155.618 98.9364C157.856 104.542 159.008 110.55 159.007 116.618Z" fill="#33230A"/>
<path d="M114.464 159.848C137.483 159.848 156.144 140.493 156.144 116.618C156.144 92.7418 137.483 73.3867 114.464 73.3867C91.4452 73.3867 72.7847 92.7418 72.7847 116.618C72.7847 140.493 91.4452 159.848 114.464 159.848Z" fill="#63431D"/>
<path d="M154.49 116.618C154.49 124.83 152.142 132.857 147.743 139.685C143.344 146.512 137.092 151.834 129.777 154.976C122.462 158.118 114.413 158.94 106.648 157.338C98.8832 155.735 91.7506 151.781 86.1524 145.974C80.5542 140.167 76.7419 132.769 75.1975 124.714C73.6531 116.66 74.446 108.312 77.4759 100.725C80.5058 93.1384 85.6367 86.6538 92.2197 82.0916C98.8027 77.5293 106.542 75.0942 114.459 75.0942C119.717 75.0939 124.923 76.1677 129.78 78.2544C134.637 80.341 139.05 83.3997 142.767 87.2556C146.485 91.1115 149.433 95.6892 151.445 100.727C153.456 105.765 154.491 111.165 154.49 116.618Z" fill="#33230A"/>
<path d="M117.135 80.4704C117.136 81.0188 116.98 81.5552 116.687 82.0115C116.393 82.4678 115.976 82.8237 115.488 83.034C115 83.2444 114.462 83.2997 113.944 83.1931C113.425 83.0865 112.948 82.8227 112.574 82.4351C112.2 82.0475 111.946 81.5535 111.842 81.0157C111.739 80.4778 111.792 79.9203 111.994 79.4136C112.197 78.907 112.539 78.474 112.979 78.1694C113.419 77.8648 113.936 77.7024 114.464 77.7026C115.172 77.704 115.85 77.996 116.351 78.5147C116.851 79.0334 117.133 79.7366 117.135 80.4704Z" fill="#63431D"/>
<path d="M117.135 152.758C117.135 152.21 116.979 151.674 116.685 151.218C116.392 150.762 115.975 150.407 115.486 150.197C114.998 149.987 114.46 149.932 113.942 150.039C113.424 150.145 112.947 150.409 112.573 150.797C112.2 151.185 111.945 151.679 111.842 152.217C111.739 152.754 111.792 153.312 111.994 153.818C112.197 154.325 112.54 154.758 112.979 155.062C113.419 155.367 113.936 155.529 114.464 155.529C114.815 155.529 115.162 155.457 115.486 155.318C115.81 155.179 116.105 154.975 116.353 154.717C116.601 154.46 116.798 154.155 116.932 153.819C117.066 153.482 117.135 153.122 117.135 152.758Z" fill="#63431D"/>
<path d="M149.31 119.386C148.781 119.385 148.265 119.222 147.826 118.917C147.388 118.613 147.046 118.18 146.844 117.674C146.642 117.168 146.589 116.611 146.693 116.074C146.796 115.536 147.05 115.043 147.424 114.656C147.797 114.268 148.273 114.005 148.791 113.898C149.309 113.791 149.846 113.846 150.334 114.055C150.822 114.265 151.239 114.62 151.533 115.075C151.826 115.531 151.983 116.066 151.983 116.614C151.982 117.349 151.7 118.054 151.199 118.573C150.698 119.093 150.018 119.385 149.31 119.386Z" fill="#63431D"/>
<path d="M79.6179 119.386C80.1459 119.384 80.6617 119.221 81.1003 118.916C81.5389 118.611 81.8804 118.178 82.0819 117.672C82.2833 117.166 82.3355 116.609 82.232 116.072C82.1285 115.535 81.8738 115.042 81.5002 114.655C81.1266 114.268 80.6508 114.004 80.1329 113.898C79.615 113.791 79.0782 113.846 78.5905 114.056C78.1027 114.265 77.6857 114.62 77.3923 115.076C77.0989 115.531 76.9421 116.066 76.9419 116.614C76.9421 116.978 77.0114 117.339 77.146 117.675C77.2806 118.012 77.4778 118.317 77.7263 118.575C77.9748 118.832 78.2697 119.036 78.5943 119.175C78.9189 119.314 79.2667 119.386 79.6179 119.386Z" fill="#63431D"/>
<path d="M91.713 89.0963C92.0872 89.4837 92.3421 89.9776 92.4456 90.5153C92.5491 91.0531 92.4964 91.6107 92.2943 92.1174C92.0922 92.6241 91.7497 93.0573 91.3102 93.3621C90.8706 93.6668 90.3538 93.8295 89.8251 93.8295C89.2964 93.8295 88.7795 93.6668 88.34 93.3621C87.9004 93.0573 87.5579 92.6241 87.3558 92.1174C87.1537 91.6107 87.101 91.0531 87.2045 90.5153C87.308 89.9776 87.563 89.4837 87.9371 89.0963C88.4381 88.5775 89.1171 88.2861 89.8251 88.2861C90.533 88.2861 91.212 88.5775 91.713 89.0963Z" fill="#63431D"/>
<path d="M140.993 140.212C140.62 139.825 140.144 139.562 139.626 139.455C139.108 139.349 138.572 139.404 138.084 139.614C137.597 139.823 137.18 140.178 136.887 140.633C136.593 141.089 136.437 141.624 136.437 142.171C136.437 142.719 136.593 143.254 136.887 143.709C137.18 144.165 137.597 144.52 138.084 144.729C138.572 144.939 139.108 144.994 139.626 144.888C140.144 144.781 140.62 144.518 140.993 144.131C141.242 143.874 141.439 143.568 141.573 143.232C141.708 142.896 141.777 142.535 141.777 142.171C141.777 141.807 141.708 141.447 141.573 141.111C141.439 140.774 141.242 140.469 140.993 140.212Z" fill="#63431D"/>
<path d="M140.993 93.0183C140.619 93.4052 140.143 93.6686 139.625 93.775C139.107 93.8815 138.571 93.8264 138.083 93.6165C137.595 93.4067 137.178 93.0516 136.885 92.5961C136.592 92.1406 136.435 91.6052 136.435 91.0575C136.435 90.5098 136.592 89.9744 136.885 89.5189C137.178 89.0634 137.595 88.7083 138.083 88.4985C138.571 88.2887 139.107 88.2335 139.625 88.34C140.143 88.4464 140.619 88.7098 140.993 89.0967C141.242 89.3539 141.439 89.6594 141.574 89.9959C141.709 90.3324 141.778 90.6932 141.778 91.0575C141.778 91.4218 141.709 91.7826 141.574 92.1191C141.439 92.4556 141.242 92.7611 140.993 93.0183Z" fill="#63431D"/>
<path d="M91.713 144.131C92.0864 143.744 92.3406 143.25 92.4436 142.713C92.5465 142.175 92.4935 141.618 92.2913 141.112C92.0891 140.606 91.7468 140.173 91.3076 139.869C90.8684 139.565 90.352 139.402 89.8238 139.402C89.2956 139.402 88.7793 139.565 88.34 139.869C87.9008 140.173 87.5585 140.606 87.3563 141.112C87.1541 141.618 87.1011 142.175 87.204 142.713C87.307 143.25 87.5612 143.744 87.9346 144.131C88.1826 144.389 88.4771 144.593 88.8012 144.732C89.1254 144.872 89.4729 144.944 89.8238 144.944C90.1747 144.944 90.5222 144.872 90.8464 144.732C91.1706 144.593 91.465 144.389 91.713 144.131Z" fill="#63431D"/>
<path d="M108.026 80.9895C108.163 81.5195 108.145 82.0795 107.975 82.5989C107.805 83.1183 107.49 83.5736 107.07 83.9073C106.65 84.241 106.144 84.438 105.617 84.4735C105.089 84.5089 104.563 84.3813 104.105 84.1066C103.647 83.8318 103.278 83.4225 103.045 82.9302C102.811 82.438 102.724 81.885 102.794 81.3412C102.863 80.7974 103.087 80.2872 103.436 79.8753C103.785 79.4633 104.244 79.168 104.755 79.0268C105.44 78.8379 106.169 78.9385 106.782 79.3065C107.395 79.6745 107.843 80.2798 108.026 80.9895Z" fill="#63431D"/>
<path d="M126.063 150.811C125.926 150.282 125.641 149.807 125.243 149.446C124.846 149.086 124.354 148.855 123.83 148.784C123.306 148.713 122.774 148.805 122.3 149.048C121.827 149.29 121.433 149.673 121.17 150.148C120.906 150.623 120.784 151.168 120.819 151.715C120.854 152.261 121.044 152.785 121.366 153.219C121.688 153.654 122.127 153.979 122.627 154.155C123.128 154.331 123.667 154.349 124.177 154.207C124.516 154.112 124.834 153.95 125.112 153.728C125.391 153.507 125.624 153.23 125.799 152.915C125.974 152.599 126.088 152.251 126.133 151.89C126.178 151.529 126.155 151.163 126.063 150.811Z" fill="#63431D"/>
<path d="M148.815 109.938C148.304 110.08 147.765 110.061 147.265 109.884C146.764 109.708 146.326 109.381 146.005 108.946C145.683 108.511 145.493 107.987 145.459 107.44C145.425 106.893 145.548 106.348 145.812 105.873C146.077 105.399 146.471 105.016 146.945 104.774C147.419 104.532 147.952 104.441 148.475 104.513C148.999 104.584 149.491 104.815 149.888 105.177C150.285 105.538 150.57 106.014 150.707 106.543C150.89 107.254 150.793 108.01 150.438 108.647C150.084 109.284 149.5 109.748 148.815 109.938Z" fill="#63431D"/>
<path d="M81.4964 128.647C82.0065 128.505 82.4644 128.209 82.8124 127.797C83.1604 127.385 83.3827 126.875 83.4514 126.332C83.52 125.788 83.4319 125.236 83.1981 124.745C82.9643 124.254 82.5953 123.846 82.1378 123.572C81.6804 123.298 81.1549 123.171 80.6279 123.207C80.1008 123.243 79.5959 123.44 79.1769 123.774C78.7579 124.107 78.4437 124.562 78.2739 125.081C78.1041 125.6 78.0864 126.159 78.223 126.688C78.4072 127.398 78.8554 128.003 79.4691 128.37C80.0828 128.737 80.8119 128.837 81.4964 128.647Z" fill="#63431D"/>
<path d="M85.6248 96.1429C86.0831 96.4168 86.4527 96.8255 86.6869 97.3174C86.9212 97.8093 87.0095 98.3621 86.9407 98.9061C86.8719 99.45 86.6492 99.9605 86.3006 100.373C85.952 100.786 85.4932 101.082 84.9824 101.224C84.4715 101.366 83.9315 101.348 83.4307 101.171C82.9298 100.995 82.4907 100.669 82.1687 100.233C81.8468 99.798 81.6566 99.2735 81.6221 98.7261C81.5877 98.1787 81.7106 97.6329 81.9752 97.158C82.3299 96.522 82.9134 96.0579 83.5976 95.8676C84.2819 95.6773 85.0109 95.7763 85.6248 96.1429Z" fill="#63431D"/>
<path d="M145.977 132.29C145.52 132.016 144.995 131.889 144.468 131.924C143.941 131.96 143.436 132.157 143.017 132.49C142.598 132.823 142.284 133.278 142.114 133.797C141.944 134.315 141.926 134.874 142.063 135.403C142.199 135.933 142.484 136.408 142.881 136.769C143.278 137.13 143.769 137.361 144.293 137.433C144.816 137.504 145.348 137.414 145.822 137.171C146.296 136.929 146.689 136.547 146.954 136.073C147.129 135.758 147.243 135.41 147.289 135.05C147.335 134.689 147.312 134.323 147.221 133.971C147.131 133.62 146.974 133.291 146.761 133.002C146.547 132.714 146.281 132.472 145.977 132.29Z" fill="#63431D"/>
<path d="M134.201 86.6968C133.936 87.1716 133.542 87.5544 133.068 87.7968C132.593 88.0391 132.06 88.1301 131.536 88.0582C131.012 87.9863 130.52 87.7548 130.122 87.3929C129.725 87.031 129.44 86.555 129.304 86.0252C129.167 85.4953 129.185 84.9353 129.355 84.416C129.526 83.8968 129.841 83.4416 130.26 83.108C130.68 82.7744 131.186 82.5774 131.713 82.5419C132.241 82.5065 132.767 82.6341 133.225 82.9087C133.529 83.0909 133.795 83.3334 134.009 83.6224C134.222 83.9113 134.379 84.2412 134.47 84.5929C134.56 84.9447 134.583 85.3116 134.537 85.6726C134.491 86.0336 134.377 86.3816 134.201 86.6968Z" fill="#63431D"/>
<path d="M99.3547 149.302C99.6185 148.828 99.7408 148.283 99.706 147.736C99.6713 147.189 99.481 146.666 99.1593 146.231C98.8376 145.797 98.3989 145.471 97.8987 145.295C97.3985 145.119 96.8592 145.101 96.3491 145.242C95.8389 145.384 95.3807 145.68 95.0325 146.092C94.6843 146.504 94.4616 147.014 94.3927 147.557C94.3238 148.1 94.4117 148.652 94.6453 149.144C94.8788 149.635 95.2477 150.043 95.705 150.317C96.0089 150.499 96.3444 150.618 96.6923 150.665C97.0402 150.713 97.3937 150.688 97.7326 150.594C98.0716 150.5 98.3893 150.337 98.6676 150.116C98.9459 149.894 99.1794 149.618 99.3547 149.302Z" fill="#63431D"/>
<path d="M99.3546 83.9279C99.6188 84.4023 99.7415 84.9474 99.7072 85.4941C99.6728 86.0409 99.4829 86.5647 99.1615 86.9995C98.8401 87.4343 98.4016 87.7605 97.9014 87.9369C97.4013 88.1132 96.862 88.1317 96.3517 87.9902C95.8414 87.8486 95.383 87.5533 95.0345 87.1415C94.6861 86.7298 94.4631 86.2201 94.3939 85.6769C94.3247 85.1337 94.4123 84.5815 94.6456 84.0899C94.879 83.5984 95.2476 83.1897 95.7049 82.9155C96.0087 82.7333 96.344 82.615 96.6918 82.5674C97.0396 82.5197 97.3931 82.5435 97.732 82.6375C98.0709 82.7316 98.3886 82.8939 98.667 83.1153C98.9454 83.3367 99.1791 83.6129 99.3546 83.9279Z" fill="#63431D"/>
<path d="M134.201 146.528C133.937 146.053 133.543 145.669 133.069 145.426C132.595 145.183 132.062 145.092 131.537 145.163C131.013 145.235 130.521 145.466 130.123 145.827C129.725 146.189 129.44 146.665 129.303 147.194C129.166 147.724 129.183 148.284 129.353 148.804C129.523 149.323 129.838 149.779 130.258 150.113C130.677 150.447 131.183 150.644 131.711 150.68C132.239 150.715 132.765 150.588 133.223 150.314C133.836 149.946 134.284 149.341 134.467 148.631C134.651 147.921 134.555 147.165 134.201 146.528Z" fill="#63431D"/>
<path d="M145.978 100.945C145.52 101.22 144.994 101.348 144.466 101.312C143.938 101.277 143.433 101.08 143.013 100.746C142.593 100.412 142.278 99.9573 142.108 99.438C141.938 98.9188 141.92 98.3588 142.056 97.8289C142.193 97.299 142.478 96.8231 142.875 96.4612C143.272 96.0993 143.764 95.8678 144.289 95.7959C144.813 95.724 145.346 95.815 145.82 96.0573C146.295 96.2996 146.689 96.6824 146.954 97.1573C147.307 97.7943 147.403 98.5505 147.22 99.2604C147.037 99.9704 146.59 100.576 145.978 100.945Z" fill="#63431D"/>
<path d="M85.6248 137.084C86.0816 136.81 86.4499 136.401 86.6829 135.91C86.9159 135.419 87.0033 134.867 86.934 134.324C86.8647 133.781 86.6418 133.272 86.2936 132.861C85.9453 132.449 85.4872 132.154 84.9772 132.012C84.4673 131.871 83.9283 131.89 83.4285 132.066C82.9287 132.242 82.4904 132.568 82.1691 133.002C81.8478 133.437 81.6579 133.96 81.6234 134.506C81.5889 135.053 81.7113 135.597 81.9751 136.072C82.1505 136.387 82.3841 136.663 82.6625 136.885C82.9409 137.106 83.2586 137.269 83.5976 137.363C83.9366 137.457 84.2901 137.48 84.6379 137.433C84.9857 137.385 85.3211 137.266 85.6248 137.084Z" fill="#63431D"/>
<path d="M81.4965 104.585C82.007 104.727 82.4654 105.023 82.8137 105.435C83.1621 105.848 83.3847 106.358 83.4535 106.901C83.5224 107.445 83.4343 107.997 83.2003 108.489C82.9664 108.98 82.5973 109.389 82.1395 109.663C81.6817 109.937 81.1558 110.064 80.6285 110.028C80.1011 109.992 79.5959 109.794 79.1767 109.461C78.7575 109.127 78.4431 108.671 78.2734 108.152C78.1037 107.633 78.0862 107.073 78.2231 106.544C78.407 105.834 78.8551 105.229 79.4689 104.862C80.0827 104.495 80.812 104.395 81.4965 104.585Z" fill="#63431D"/>
<path d="M148.815 123.295C148.304 123.154 147.765 123.173 147.265 123.349C146.765 123.526 146.327 123.852 146.006 124.287C145.685 124.722 145.495 125.246 145.461 125.793C145.427 126.34 145.55 126.885 145.815 127.359C146.079 127.833 146.473 128.215 146.947 128.457C147.421 128.699 147.954 128.79 148.477 128.718C149.001 128.646 149.492 128.415 149.889 128.053C150.286 127.692 150.571 127.217 150.707 126.687C150.89 125.977 150.793 125.221 150.438 124.585C150.083 123.949 149.499 123.485 148.815 123.295Z" fill="#63431D"/>
<path d="M126.063 82.4184C125.926 82.9478 125.641 83.4231 125.244 83.7844C124.847 84.1456 124.355 84.3765 123.831 84.4479C123.307 84.5192 122.775 84.4278 122.301 84.1852C121.827 83.9426 121.433 83.5597 121.169 83.0849C120.905 82.6102 120.783 82.0649 120.818 81.518C120.853 80.9712 121.043 80.4474 121.365 80.0129C121.687 79.5783 122.126 79.2526 122.627 79.0769C123.127 78.9012 123.667 78.8834 124.177 79.0258C124.516 79.1199 124.833 79.2824 125.111 79.5039C125.39 79.7254 125.623 80.0016 125.798 80.3166C125.973 80.6317 126.087 80.9795 126.132 81.3402C126.178 81.7008 126.154 82.0672 126.063 82.4184Z" fill="#63431D"/>
<path d="M108.026 152.245C108.163 151.715 108.145 151.155 107.975 150.636C107.805 150.116 107.49 149.661 107.07 149.327C106.65 148.994 106.144 148.797 105.617 148.761C105.089 148.726 104.563 148.853 104.105 149.128C103.647 149.403 103.278 149.812 103.045 150.304C102.811 150.797 102.724 151.35 102.794 151.893C102.863 152.437 103.087 152.947 103.436 153.359C103.785 153.771 104.244 154.067 104.755 154.208C105.44 154.395 106.168 154.294 106.781 153.926C107.394 153.558 107.841 152.954 108.026 152.245Z" fill="#63431D"/>
<g style="mix-blend-mode:soft-light">
<path d="M86.2947 72.8423L156.663 145.829C159.384 141.61 161.502 137.003 162.948 132.154L99.4734 66.3228C94.7985 67.8206 90.359 70.0169 86.2947 72.8423Z" fill="#FFD0CA"/>
</g>
<g style="mix-blend-mode:soft-light">
<path d="M78.8428 79.144C77.1205 80.9033 75.522 82.7883 74.0596 84.7847L145.149 158.52C147.074 157.001 148.893 155.343 150.593 153.558L117.115 118.84L78.8428 79.144Z" fill="#FFD0CA"/>
</g>
<path d="M118.268 139.562C113.153 139.562 108.952 138.626 105.664 136.753C102.421 134.835 100.161 131.981 98.882 128.191L111.623 122.916C111.669 124.515 111.943 125.771 112.445 126.684C112.947 127.597 113.632 128.237 114.5 128.602C115.413 128.922 116.372 129.081 117.377 129.081C118.382 129.081 119.249 128.922 119.98 128.602C120.756 128.237 121.35 127.711 121.761 127.026C122.172 126.341 122.378 125.542 122.378 124.629C122.378 123.579 122.149 122.757 121.693 122.163C121.282 121.569 120.711 121.158 119.98 120.93C119.249 120.656 118.405 120.519 117.446 120.519C116.806 120.519 116.235 120.542 115.733 120.587C115.276 120.633 114.728 120.702 114.089 120.793V112.299C114.454 112.345 114.82 112.39 115.185 112.436C115.55 112.436 116.007 112.436 116.555 112.436C118.245 112.436 119.478 112.071 120.254 111.34C121.03 110.609 121.419 109.422 121.419 107.778C121.419 106.408 121.03 105.358 120.254 104.627C119.523 103.851 118.496 103.462 117.172 103.462C115.756 103.462 114.546 103.896 113.541 104.764C112.582 105.586 112.034 107.116 111.897 109.353L99.7725 105.449C100.138 102.709 101.165 100.426 102.855 98.599C104.59 96.7723 106.76 95.3795 109.363 94.4204C112.011 93.4615 114.934 92.982 118.131 92.982C121.738 92.982 124.775 93.4843 127.241 94.489C129.753 95.4936 131.648 96.9321 132.927 98.8045C134.251 100.677 134.913 102.96 134.913 105.654C134.913 107.709 134.571 109.399 133.886 110.723C133.246 112.048 132.424 113.098 131.42 113.874C130.415 114.651 129.456 115.222 128.543 115.587C127.629 115.907 126.921 116.066 126.419 116.066V116.34C126.967 116.34 127.743 116.455 128.748 116.683C129.798 116.911 130.849 117.345 131.899 117.984C132.995 118.624 133.908 119.583 134.639 120.861C135.415 122.094 135.804 123.738 135.804 125.793C135.804 128.625 135.027 131.091 133.475 133.191C131.922 135.246 129.821 136.822 127.173 137.918C124.524 139.014 121.556 139.562 118.268 139.562Z" fill="#886455"/>
<defs>
<filter id="filter0_f_509_383" x="0" y="0" width="228" height="233" filterUnits="userSpaceOnUse" color-interpolation-filters="sRGB">
<feFlood flood-opacity="0" result="BackgroundImageFix"/>
<feBlend mode="normal" in="SourceGraphic" in2="BackgroundImageFix" result="shape"/>
<feGaussianBlur stdDeviation="25" result="effect1_foregroundBlur_509_383"/>
</filter>
</defs>
</svg>
